#!OML:ASF X:\für Bonn\!DataBase\2005_08_10_Bjorn_Final\c3d\bjorn.ASF
:FULLY-SPECIFIED
:DEGREES
368
root -1.27008 2.44716 19.8395 -425.908 -172.737 8.61236
lowerback 60.4986 2.62857 15.5695
upperback 23.9963 -4.47398 4.26347
thorax 6.87943 -8.42129 -1.37742
lowerneck 4.9129 9.17773 1.4902
upperneck -5.46276 11.3615 -14.4757
head -1.47423 5.96673 -4.80736
rclavicle 4.37326e-015 3.97569e-015
rhumerus -214.191 -185.767 116.088
rradius 70.9915
rwrist -27.987
rhand -7.45782 2.35585
rfingers 7.12502
rthumb 18.4305 -26.791
lclavicle 4.37326e-015 3.97569e-015
lhumerus -383.131 -39.0256 -296.336
lradius 70.273
lwrist -4.60809
lhand -55.3909 -30.0819
lfingers 7.12502
lthumb -27.754 -2.11063
rfemur -263.892 -140.79 194.085
rtibia 124.707
rfoot 26.0548 9.17354
rtoes -7.75667
lfemur -79.7731 12.0309 -29.4128
ltibia 117.806
lfoot 19.7748 8.46149
ltoes -2.70394
369
root -1.27318 2.43797 19.8482 -426.051 -172.79 8.6483
lowerback 60.2575 2.71579 15.2982
upperback 23.9338 -4.40424 4.14478
thorax 6.76435 -8.34695 -1.40939
lowerneck 4.9066 8.92611 1.24806
upperneck -5.05196 11.0724 -13.9549
head -1.42106 5.79939 -4.60283
rclavicle -4.57205e-014 4.77083e-015
rhumerus -212.188 -185.555 116.587
rradius 70.6212
rwrist -27.6059
rhand -8.26268 2.88546
rfingers 7.12502
rthumb 17.6561 -26.3329
lclavicle -4.57205e-014 4.77083e-015
lhumerus -380.381 -38.4611 -297.849
lradius 69.1982
lwrist -4.41929
lhand -54.9802 -30.8824
lfingers 7.12502
lthumb -27.3612 -2.84851
rfemur -263.697 -140.93 193.994
rtibia 124.657
rfoot 26.0881 9.06231
rtoes -7.41566
lfemur -79.6352 11.9555 -29.3336
ltibia 117.767
lfoot 19.7668 8.53319
ltoes -2.72638
370
root -1.2753 2.426 19.8557 -426.178 -172.821 8.67533
lowerback 59.9712 2.82601 14.9894
upperback 23.8918 -4.33562 4.03451
thorax 6.67279 -8.27652 -1.42178
lowerneck 4.78575 8.65642 0.975223
upperneck -4.42702 10.7974 -13.027
head -1.4309 5.60767 -4.72255
rclavicle -2.74323e-014 -7.15625e-015
rhumerus -210.11 -185.235 117.015
rradius 70.185
rwrist -27.3069
rhand -8.71878 3.46352
rfingers 7.12502
rthumb 17.2171 -25.7937
lclavicle -2.74323e-014 -7.15625e-015
lhumerus -377.714 -37.8845 -299.261
lradius 68.0918
lwrist -4.24098
lhand -54.5811 -31.5582
lfingers 7.12502
lthumb -26.9794 -3.46458
rfemur -263.555 -141.088 193.899
rtibia 124.613
rfoot 26.1132 8.96861
rtoes -7.30355
lfemur -79.5206 11.8646 -29.2726
ltibia 117.723
lfoot 19.7323 8.70402
ltoes -2.46107
371
root -1.27675 2.4141 19.8621 -426.298 -172.858 8.70892
lowerback 59.6398 2.94474 14.7065
upperback 23.8775 -4.25441 3.93185
thorax 6.62056 -8.1971 -1.44828
lowerneck 4.60033 8.36283 0.665692
upperneck -4.00101 10.4555 -12.4206
head -1.33476 5.41065 -4.42155
rclavicle 2.38542e-015 -1.59028e-015
rhumerus -207.962 -184.707 117.368
rradius 69.6375
rwrist -26.9249
rhand -8.85457 4.17016
rfingers 7.12502
rthumb 17.0864 -25.0985
lclavicle 2.38542e-015 -1.59028e-015
lhumerus -375.04 -37.3386 -300.638
lradius 66.9239
lwrist -4.24383
lhand -54.3024 -31.8298
lfingers 7.12502
lthumb -26.7127 -3.69525
rfemur -263.451 -141.223 193.848
rtibia 124.591
rfoot 26.1258 8.92413
rtoes -7.23778
lfemur -79.4355 11.7936 -29.2022
ltibia 117.696
lfoot 19.7128 8.81009
ltoes -2.145
372
root -1.27859 2.40146 19.8696 -426.429 -172.903 8.70812
lowerback 59.2624 3.09078 14.4058
upperback 23.8904 -4.16212 3.82633
thorax 6.60185 -8.11388 -1.4809
lowerneck 4.45252 8.04591 0.439072
upperneck -3.60517 10.0816 -11.8556
head -1.248 5.20039 -4.15682
rclavicle -3.97569e-016 8.74653e-015
rhumerus -205.806 -184.058 117.625
rradius 68.9972
rwrist -26.5272
rhand -8.86338 4.69069
rfingers 7.12502
rthumb 17.0779 -24.5787
lclavicle -3.97569e-016 8.74653e-015
lhumerus -372.449 -36.5489 -301.811
lradius 65.4707
lwrist -4.83073
lhand -54.1801 -31.7833
lfingers 7.12502
lthumb -26.5957 -3.6309
rfemur -263.309 -141.432 193.763
rtibia 124.549
rfoot 26.169 8.77691
rtoes -6.84179
lfemur -79.3391 11.7499 -29.1492
ltibia 117.666
lfoot 19.7404 8.82134
ltoes -2.29777
373
root -1.27891 2.38791 19.8765 -426.535 -172.943 8.71911
lowerback 58.801 3.25333 14.1229
upperback 23.9488 -4.05698 3.73122
thorax 6.64478 -8.02082 -1.52606
lowerneck 4.26016 7.69303 0.208832
upperneck -3.26082 9.66128 -11.2162
head -1.17405 4.96841 -3.86804
rclavicle -7.15625e-015 1.59028e-014
rhumerus -203.649 -183.282 117.787
rradius 68.2566
rwrist -26.1372
rhand -8.7125 5.02689
rfingers 7.12502
rthumb 17.2232 -24.2299
lclavicle -7.15625e-015 1.59028e-014
lhumerus -369.705 -35.6621 -302.892
lradius 63.6363
lwrist -5.71725
lhand -54.1131 -31.5216
lfingers 7.12502
lthumb -26.5316 -3.35956
rfemur -263.244 -141.616 193.732
rtibia 124.53
rfoot 26.1719 8.70366
rtoes -6.82487
lfemur -79.2703 11.6902 -29.0842
ltibia 117.63
lfoot 19.7437 8.9028
ltoes -2.10781
374
root -1.27955 2.37452 19.8822 -426.635 -172.992 8.69123
lowerback 58.3005 3.45166 13.8026
upperback 24.0271 -3.93723 3.64077
thorax 6.71284 -7.92618 -1.55952
lowerneck 4.00474 7.32177 -0.0112935
upperneck -2.86391 9.2233 -10.5612
head -1.06947 4.72495 -3.57367
rclavicle -9.93923e-015 -5.56597e-015
rhumerus -201.486 -182.603 117.852
rradius 67.3812
rwrist -25.7097
rhand -8.67807 5.12332
rfingers 7.12502
rthumb 17.2563 -24.1305
lclavicle -9.93923e-015 -5.56597e-015
lhumerus -367.021 -34.7639 -303.858
lradius 61.7753
lwrist -6.74062
lhand -53.9988 -30.9021
lfingers 7.12502
lthumb -26.4222 -2.72356
rfemur -263.179 -141.867 193.688
rtibia 124.508
rfoot 26.1801 8.64092
rtoes -6.70095
lfemur -79.2178 11.6881 -29.0432
ltibia 117.612
lfoot 19.7924 8.87251
ltoes -2.29734
375
root -1.27967 2.35986 19.8887 -426.742 -173.028 8.67543
lowerback 57.7864 3.62357 13.5198
upperback 24.1076 -3.81958 3.52779
thorax 6.78897 -7.8214 -1.63258
lowerneck 3.73655 6.9127 -0.157046
upperneck -2.4571 8.74182 -9.8792
head -0.95629 4.4607 -3.2863
rclavicle 3.26007e-014 4.77083e-015
rhumerus -199.338 -182.068 117.823
rradius 66.2819
rwrist -25.2988
rhand -8.92021 5.15772
rfingers 7.12502
rthumb 17.0232 -24.1164
lclavicle 3.26007e-014 4.77083e-015
lhumerus -364.574 -33.7751 -304.656
lradius 60.1025
lwrist -7.9338
lhand -53.6696 -29.8549
lfingers 7.12502
lthumb -26.1071 -1.62939
rfemur -263.141 -142.086 193.65
rtibia 124.496
rfoot 26.1779 8.57665
rtoes -6.72671
lfemur -79.1731 11.6653 -29.001
ltibia 117.589
lfoot 19.8336 8.90461
ltoes -2.23633
376
root -1.27919 2.34541 19.894 -426.846 -173.069 8.66573
lowerback 57.2497 3.80586 13.213
upperback 24.1774 -3.69101 3.44468
thorax 6.85714 -7.71585 -1.66415
lowerneck 3.56921 6.49655 -0.360793
upperneck -2.12209 8.23503 -9.18263
head -0.884447 4.18999 -2.99509
rclavicle -3.02153e-014 3.26007e-014
rhumerus -197.198 -181.694 117.781
rradius 65.0939
rwrist -24.9516
rhand -9.35401 5.18293
rfingers 7.12502
rthumb 16.6056 -24.1267
lclavicle -3.02153e-014 3.26007e-014
lhumerus -362.499 -32.7441 -305.184
lradius 58.7075
lwrist -9.1908
lhand -53.3483 -28.5713
lfingers 7.12502
lthumb -25.7993 -0.300727
rfemur -263.086 -142.31 193.619
rtibia 124.481
rfoot 26.1712 8.51364
rtoes -6.56878
lfemur -79.1203 11.6484 -28.9558
ltibia 117.565
lfoot 19.9066 8.87712
ltoes -2.47787
377
root -1.27861 2.33004 19.8991 -426.937 -173.1 8.63139
lowerback 56.6525 4.01153 12.8667
upperback 24.2772 -3.56423 3.35389
thorax 6.96382 -7.61394 -1.69339
lowerneck 3.44779 6.06665 -0.435226
upperneck -1.86733 7.70507 -8.57797
head -0.834206 3.91269 -2.76442
rclavicle 2.50469e-014 -3.57812e-014
rhumerus -195.098 -181.31 117.646
rradius 63.869
rwrist -24.6816
rhand -9.83003 5.30662
rfingers 7.12502
rthumb 16.1473 -24.0408
lclavicle 2.50469e-014 -3.57812e-014
lhumerus -360.51 -31.7895 -305.613
lradius 57.2989
lwrist -10.3357
lhand -53.0625 -27.6136
lfingers 7.12502
lthumb -25.5256 0.696435
rfemur -263.064 -142.548 193.582
rtibia 124.47
rfoot 26.1792 8.47597
rtoes -6.49328
lfemur -79.0924 11.6411 -28.9338
ltibia 117.552
lfoot 19.9772 8.85928
ltoes -2.72325
378
root -1.27675 2.31549 19.9057 -427.025 -173.141 8.55959
lowerback 56.0253 4.28152 12.4667
upperback 24.3999 -3.40049 3.31714
thorax 7.10446 -7.51309 -1.65648
lowerneck 3.46014 5.61425 -0.577537
upperneck -1.76267 7.12313 -7.99134
head -0.854944 3.61727 -2.53895
rclavicle 2.90226e-014 -1.98785e-014
rhumerus -192.988 -180.952 117.531
rradius 62.5554
rwrist -24.4091
rhand -10.2975 5.53949
rfingers 7.12502
rthumb 15.6971 -23.8438
lclavicle 2.90226e-014 -1.98785e-014
lhumerus -358.619 -30.9017 -305.888
lradius 55.9031
lwrist -11.347
lhand -52.8244 -26.991
lfingers 7.12502
lthumb -25.2976 1.35153
rfemur -263.039 -142.848 193.543
rtibia 124.458
rfoot 26.1894 8.4225
rtoes -6.31055
lfemur -79.0642 11.6994 -28.9102
ltibia 117.529
lfoot 20.0603 8.85655
ltoes -2.91038
379
root -1.27439 2.3022 19.9113 -427.121 -173.218 8.48377
lowerback 55.3663 4.55764 12.0726
upperback 24.55 -3.24239 3.27758
thorax 7.28575 -7.4201 -1.6285
lowerneck 3.46818 5.14087 -0.626671
upperneck -1.73374 6.51025 -7.49885
head -0.889399 3.30873 -2.36244
rclavicle -4.37326e-014 -1.90833e-014
rhumerus -190.859 -180.597 117.322
rradius 61.1762
rwrist -24.1768
rhand -10.8308 5.82406
rfingers 7.12502
rthumb 15.1835 -23.5989
lclavicle -4.37326e-014 -1.90833e-014
lhumerus -356.846 -30.0317 -306.087
lradius 54.5907
lwrist -11.9447
lhand -52.4538 -26.9206
lfingers 7.12502
lthumb -24.9424 1.47162
rfemur -262.997 -143.195 193.534
rtibia 124.441
rfoot 26.1407 8.39197
rtoes -6.36303
lfemur -79.0208 11.7964 -28.8569
ltibia 117.508
lfoot 20.1445 8.76691
ltoes -3.38129
